<svg width="512" height="512" version="1.1" xmlns="http://www.w3.org/2000/svg" desc="Created with imagetracer.js version 1.2.6" ><path fill="rgb(255,141,0)" stroke="rgb(255,141,0)" stroke-width="1" opacity="0.5098039215686274" d="M 234.5 0 L 246 0.5 L 234.5 1 L 234.5 0 Z " /><path fill="rgb(255,141,0)" stroke="rgb(255,141,0)" stroke-width="1" opacity="0.5098039215686274" d="M 266.5 0 L 278 0.5 L 266.5 1 L 266.5 0 Z " /><path fill="rgb(255,141,0)" stroke="rgb(255,141,0)" stroke-width="1" opacity="0.5098039215686274" d="M 224.5 1 L 231 1.5 L 224.5 2 L 224.5 1 Z " /><path fill="rgb(255,141,0)" stroke="rgb(255,141,0)" stroke-width="1" opacity="0.5098039215686274" d="M 281.5 1 L 288 1.5 L 281.5 2 L 281.5 1 Z " /><path fill="rgb(255,141,0)" stroke="rgb(255,141,0)" stroke-width="1" opacity="0.5098039215686274" d="M 216.5 2 L 223 2.5 L 216.5 3 L 216.5 2 Z " /><path fill="rgb(255,141,0)" stroke="rgb(255,141,0)" stroke-width="1" opacity="0.5098039215686274" d="M 289.5 2 L 296 2.5 L 289.5 3 L 289.5 2 Z " /><path fill="rgb(255,141,0)" stroke="rgb(255,141,0)" stroke-width="1" opacity="0.5098039215686274" d="M 211.5 3 L 215 3.5 L 211.5 4 L 211.5 3 Z " /><path fill="rgb(255,141,0)" stroke="rgb(255,141,0)" stroke-width="1" opacity="0.5098039215686274" d="M 297.5 3 L 301 3.5 L 297.5 4 L 297.5 3 Z " /><path fill="rgb(255,141,0)" stroke="rgb(255,141,0)" stroke-width="1" opacity="0.5098039215686274" d="M 205.5 4 L 210 4.5 L 205.5 5 L 205.5 4 Z " /><path fill="rgb(255,141,0)" stroke="rgb(255,141,0)" stroke-width="1" opacity="0.5098039215686274" d="M 302.5 4 L 307 4.5 L 302.5 5 L 302.5 4 Z " /><path fill="rgb(255,141,0)" stroke="rgb(255,141,0)" stroke-width="1" opacity="0.5098039215686274" d="M 201.5 5 L 204 5.5 L 201.5 6 L 201.5 5 Z " /><path fill="rgb(255,141,0)" stroke="rgb(255,141,0)" stroke-width="1" opacity="0.5098039215686274" d="M 308.5 5 L 311 5.5 L 308.5 6 L 308.5 5 Z " /><path fill="rgb(255,141,0)" stroke="rgb(255,141,0)" stroke-width="1" opacity="0.5098039215686274" d="M 196.5 6 L 200 6.5 L 192.5 8 L 192.5 7 L 196.5 6 Z " /><path fill="rgb(255,141,0)" stroke="rgb(255,141,0)" stroke-width="1" opacity="0.5098039215686274" d="M 312.5 6 L 320 7.5 L 316.5 8 L 312.5 7 L 312.5 6 Z " /><path fill="rgb(255,141,0)" stroke="rgb(255,141,0)" stroke-width="1" opacity="0.5098039215686274" d="M 188.5 8 L 191 8.5 L 185.5 10 L 185.5 9 L 188.5 8 Z " /><path fill="rgb(255,141,0)" stroke="rgb(255,141,0)" stroke-width="1" opacity="0.5098039215686274" d="M 321.5 8 L 327 9.5 L 324.5 10 L 321.5 9 L 321.5 8 Z " /><path fill="rgb(255,141,0)" stroke="rgb(255,141,0)" stroke-width="1" opacity="0.5098039215686274" d="M 181.5 10 L 184 10.5 L 167.5 16 L 167.5 15 L 181.5 10 Z " /><path fill="rgb(255,141,0)" stroke="rgb(255,141,0)" stroke-width="1" opacity="0.5098039215686274" d="M 328.5 10 L 345 15.5 L 343.5 16 L 328.5 11 L 328.5 10 Z " /><path fill="rgb(255,141,0)" stroke="rgb(255,141,0)" stroke-width="1" opacity="0.5098039215686274" d="M 164.5 16 L 166 16.5 L 150.5 23 L 150.5 22 L 164.5 16 Z " /><path fill="rgb(255,141,0)" stroke="rgb(255,141,0)" stroke-width="1" opacity="0.5098039215686274" d="M 346.5 16 L 362 22.5 L 360.5 23 L 346.5 17 L 346.5 16 Z " /><path fill="rgb(255,141,0)" stroke="rgb(255,141,0)" stroke-width="1" opacity="0.5098039215686274" d="M 147.5 23 L 149 23.5 L 127.5 35 L 128.5 33 L 147.5 23 Z " /><path fill="rgb(255,141,0)" stroke="rgb(255,141,0)" stroke-width="1" opacity="0.5098039215686274" d="M 363.5 23 L 385 34.5 L 383.5 34 L 363.5 24 L 363.5 23 Z " /><path fill="rgb(255,141,0)" stroke="rgb(255,141,0)" stroke-width="1" opacity="0.5098039215686274" d="M 125.5 35 L 124.5 37 L 107.5 48 L 109.5 45 L 125.5 35 Z " /><path fill="rgb(255,141,0)" stroke="rgb(255,141,0)" stroke-width="1" opacity="0.5098039215686274" d="M 386.5 35 L 405 47.5 L 402.5 46 L 387.5 37 L 386.5 35 Z " /><path fill="rgb(255,141,0)" stroke="rgb(255,141,0)" stroke-width="1" opacity="0.5098039215686274" d="M 105.5 48 L 103.5 51 Q 81.3 66.3 64 86.5 L 48.5 106 L 50 103.5 Q 65.7 80.7 86.5 63 L 105.5 48 Z " /><path fill="rgb(255,141,0)" stroke="rgb(255,141,0)" stroke-width="1" opacity="0.5098039215686274" d="M 406.5 48 Q 430.1 64.9 449 86.5 L 464 105.5 L 461 103.5 Q 445.8 81.3 425.5 64 L 408.5 51 L 406.5 48 Z " /><path fill="rgb(255,141,0)" stroke="rgb(255,141,0)" stroke-width="1" opacity="0.5098039215686274" d="M 47.5 107 L 46 109.5 L 35.5 126 L 36 124.5 L 47.5 107 Z " /><path fill="rgb(255,141,0)" stroke="rgb(255,141,0)" stroke-width="1" opacity="0.5098039215686274" d="M 464.5 107 L 477 125.5 L 475 124.5 L 464.5 107 Z " /><path fill="rgb(255,141,0)" stroke="rgb(255,141,0)" stroke-width="1" opacity="0.5098039215686274" d="M 34.5 127 L 34 128.5 L 23.5 149 L 23 147.5 L 34.5 127 Z " /><path fill="rgb(255,141,0)" stroke="rgb(255,141,0)" stroke-width="1" opacity="0.5098039215686274" d="M 477.5 127 L 489 148.5 L 488 148.5 L 477.5 127 Z " /><path fill="rgb(255,141,0)" stroke="rgb(255,141,0)" stroke-width="1" opacity="0.5098039215686274" d="M 22.5 150 L 23 151.5 L 16.5 166 L 16 164.5 L 22.5 150 Z " /><path fill="rgb(255,141,0)" stroke="rgb(255,141,0)" stroke-width="1" opacity="0.5098039215686274" d="M 489.5 150 L 496 165.5 L 495 165.5 L 489 151.5 L 489.5 150 Z " /><path fill="rgb(255,141,0)" stroke="rgb(255,141,0)" stroke-width="1" opacity="0.5098039215686274" d="M 15.5 167 L 16 168.5 L 10.5 184 L 10 181.5 L 15.5 167 Z " /><path fill="rgb(255,141,0)" stroke="rgb(255,141,0)" stroke-width="1" opacity="0.5098039215686274" d="M 496.5 167 L 502 183.5 L 501 183.5 L 496.5 167 Z " /><path fill="rgb(255,141,0)" stroke="rgb(255,141,0)" stroke-width="1" opacity="0.5098039215686274" d="M 9.5 185 L 10 187.5 L 8.5 191 L 8 188.5 L 9.5 185 Z " /><path fill="rgb(255,141,0)" stroke="rgb(255,141,0)" stroke-width="1" opacity="0.5098039215686274" d="M 502.5 185 L 504 190.5 L 503 190.5 L 502.5 185 Z " /><path fill="rgb(255,141,0)" stroke="rgb(255,141,0)" stroke-width="1" opacity="0.5098039215686274" d="M 7.5 192 L 8 195.5 L 6.5 200 L 6 196.5 L 7.5 192 Z " /><path fill="rgb(255,141,0)" stroke="rgb(255,141,0)" stroke-width="1" opacity="0.5098039215686274" d="M 504.5 192 L 506 199.5 L 505 199.5 L 504.5 192 Z " /><path fill="rgb(255,141,0)" stroke="rgb(255,141,0)" stroke-width="1" opacity="0.5098039215686274" d="M 5.5 201 L 6 203.5 L 5 203.5 L 5.5 201 Z " /><path fill="rgb(255,141,0)" stroke="rgb(255,141,0)" stroke-width="1" opacity="0.5098039215686274" d="M 506.5 201 L 507 203.5 L 506 203.5 L 506.5 201 Z " /><path fill="rgb(255,141,0)" stroke="rgb(255,141,0)" stroke-width="1" opacity="0.5098039215686274" d="M 4.5 205 L 5 209.5 L 4 209.5 L 4.5 205 Z " /><path fill="rgb(255,141,0)" stroke="rgb(255,141,0)" stroke-width="1" opacity="0.5098039215686274" d="M 507.5 205 L 508 209.5 L 507 209.5 L 507.5 205 Z " /><path fill="rgb(255,141,0)" stroke="rgb(255,141,0)" stroke-width="1" opacity="0.5098039215686274" d="M 3.5 211 L 4 214.5 L 3 214.5 L 3.5 211 Z " /><path fill="rgb(255,141,0)" stroke="rgb(255,141,0)" stroke-width="1" opacity="0.5098039215686274" d="M 508.5 211 L 509 214.5 L 508 214.5 L 508.5 211 Z " /><path fill="rgb(255,141,0)" stroke="rgb(255,141,0)" stroke-width="1" opacity="0.5098039215686274" d="M 2.5 216 L 3 222.5 L 2 222.5 L 2.5 216 Z " /><path fill="rgb(255,141,0)" stroke="rgb(255,141,0)" stroke-width="1" opacity="0.5098039215686274" d="M 509.5 216 L 510 222.5 L 509 222.5 L 509.5 216 Z " /><path fill="rgb(255,141,0)" stroke="rgb(255,141,0)" stroke-width="1" opacity="0.5098039215686274" d="M 1.5 224 L 2 230.5 L 1 230.5 L 1.5 224 Z " /><path fill="rgb(255,141,0)" stroke="rgb(255,141,0)" stroke-width="1" opacity="0.5098039215686274" d="M 510.5 224 L 511 230.5 L 510 230.5 L 510.5 224 Z " /><path fill="rgb(255,141,0)" stroke="rgb(255,141,0)" stroke-width="1" opacity="0.5098039215686274" d="M 0.5 234 L 1 245.5 L 0 245.5 L 0.5 234 Z " /><path fill="rgb(255,141,0)" stroke="rgb(255,141,0)" stroke-width="1" opacity="0.5098039215686274" d="M 511.5 234 L 512 245.5 L 511 245.5 L 511.5 234 Z " /><path fill="rgb(255,141,0)" stroke="rgb(255,141,0)" stroke-width="1" opacity="0.5098039215686274" d="M 0.5 266 L 1 277.5 L 0 277.5 L 0.5 266 Z " /><path fill="rgb(255,141,0)" stroke="rgb(255,141,0)" stroke-width="1" opacity="0.5098039215686274" d="M 511.5 266 L 512 277.5 L 511 277.5 L 511.5 266 Z " /><path fill="rgb(255,141,0)" stroke="rgb(255,141,0)" stroke-width="1" opacity="0.5098039215686274" d="M 1.5 281 L 2 287.5 L 1 287.5 L 1.5 281 Z " /><path fill="rgb(255,141,0)" stroke="rgb(255,141,0)" stroke-width="1" opacity="0.5098039215686274" d="M 510.5 281 L 511 287.5 L 510 287.5 L 510.5 281 Z " /><path fill="rgb(255,141,0)" stroke="rgb(255,141,0)" stroke-width="1" opacity="0.5098039215686274" d="M 2.5 289 L 3 295.5 L 2 295.5 L 2.5 289 Z " /><path fill="rgb(255,141,0)" stroke="rgb(255,141,0)" stroke-width="1" opacity="0.5098039215686274" d="M 509.5 289 L 510 295.5 L 509 295.5 L 509.5 289 Z " /><path fill="rgb(255,141,0)" stroke="rgb(255,141,0)" stroke-width="1" opacity="0.5098039215686274" d="M 3.5 297 L 4 300.5 L 3 300.5 L 3.5 297 Z " /><path fill="rgb(255,141,0)" stroke="rgb(255,141,0)" stroke-width="1" opacity="0.5098039215686274" d="M 508.5 297 L 509 300.5 L 508 300.5 L 508.5 297 Z " /><path fill="rgb(255,141,0)" stroke="rgb(255,141,0)" stroke-width="1" opacity="0.5098039215686274" d="M 4.5 302 L 5 306.5 L 4 306.5 L 4.5 302 Z " /><path fill="rgb(255,141,0)" stroke="rgb(255,141,0)" stroke-width="1" opacity="0.5098039215686274" d="M 507.5 302 L 508 306.5 L 507 306.5 L 507.5 302 Z " /><path fill="rgb(255,141,0)" stroke="rgb(255,141,0)" stroke-width="1" opacity="0.5098039215686274" d="M 5.5 308 L 6 310.5 L 5 310.5 L 5.5 308 Z " /><path fill="rgb(255,141,0)" stroke="rgb(255,141,0)" stroke-width="1" opacity="0.5098039215686274" d="M 506.5 308 L 507 310.5 L 506 310.5 L 506.5 308 Z " /><path fill="rgb(255,141,0)" stroke="rgb(255,141,0)" stroke-width="1" opacity="0.5098039215686274" d="M 6.5 312 L 8 319.5 L 7 319.5 L 6.5 312 Z " /><path fill="rgb(255,141,0)" stroke="rgb(255,141,0)" stroke-width="1" opacity="0.5098039215686274" d="M 505.5 312 L 506 315.5 L 504.5 320 L 504 316.5 L 505.5 312 Z " /><path fill="rgb(255,141,0)" stroke="rgb(255,141,0)" stroke-width="1" opacity="0.5098039215686274" d="M 8.5 321 L 10 326.5 L 9 326.5 L 8.5 321 Z " /><path fill="rgb(255,141,0)" stroke="rgb(255,141,0)" stroke-width="1" opacity="0.5098039215686274" d="M 503.5 321 L 504 323.5 L 502.5 327 L 502 324.5 L 503.5 321 Z " /><path fill="rgb(255,141,0)" stroke="rgb(255,141,0)" stroke-width="1" opacity="0.5098039215686274" d="M 10.5 328 L 16 344.5 L 15 344.5 L 10 330.5 L 10.5 328 Z " /><path fill="rgb(255,141,0)" stroke="rgb(255,141,0)" stroke-width="1" opacity="0.5098039215686274" d="M 501.5 328 L 502 330.5 L 496.5 345 L 496 343.5 L 501.5 328 Z " /><path fill="rgb(255,141,0)" stroke="rgb(255,141,0)" stroke-width="1" opacity="0.5098039215686274" d="M 16.5 346 L 23 361.5 L 22 361.5 L 17 350.5 L 16.5 346 Z " /><path fill="rgb(255,141,0)" stroke="rgb(255,141,0)" stroke-width="1" opacity="0.5098039215686274" d="M 495.5 346 L 496 347.5 L 489.5 362 L 489 360.5 L 495.5 346 Z " /><path fill="rgb(255,141,0)" stroke="rgb(255,141,0)" stroke-width="1" opacity="0.5098039215686274" d="M 23.5 363 L 35 384.5 L 33 383.5 L 23 364.5 L 23.5 363 Z " /><path fill="rgb(255,141,0)" stroke="rgb(255,141,0)" stroke-width="1" opacity="0.5098039215686274" d="M 488.5 363 L 489 364.5 L 477.5 385 L 478 383.5 L 488.5 363 Z " /><path fill="rgb(255,141,0)" stroke="rgb(255,141,0)" stroke-width="1" opacity="0.5098039215686274" d="M 35.5 386 L 48 404.5 L 45 402.5 L 35.5 386 Z " /><path fill="rgb(255,141,0)" stroke="rgb(255,141,0)" stroke-width="1" opacity="0.5098039215686274" d="M 476.5 386 L 476 387.5 L 464.5 405 L 466 402.5 L 476.5 386 Z " /><path fill="rgb(255,141,0)" stroke="rgb(255,141,0)" stroke-width="1" opacity="0.5098039215686274" d="M 48.5 406 Q 65.2 429.3 86.5 448 L 106 463.5 L 103.5 462 Q 80.7 446.3 63 425.5 L 48.5 406 Z " /><path fill="rgb(255,141,0)" stroke="rgb(255,141,0)" stroke-width="1" opacity="0.5098039215686274" d="M 463.5 406 L 462 408.5 Q 446.3 431.3 425.5 449 L 406.5 464 L 408.5 461 Q 430.8 445.8 448 425.5 L 463.5 406 Z " /><path fill="rgb(255,141,0)" stroke="rgb(255,141,0)" stroke-width="1" opacity="0.5098039215686274" d="M 107.5 464 L 126 476.5 L 124.5 476 L 109.5 467 L 107.5 464 Z " /><path fill="rgb(255,141,0)" stroke="rgb(255,141,0)" stroke-width="1" opacity="0.5098039215686274" d="M 404.5 464 L 402.5 467 L 386.5 477 L 387.5 475 L 404.5 464 Z " /><path fill="rgb(255,141,0)" stroke="rgb(255,141,0)" stroke-width="1" opacity="0.5098039215686274" d="M 127.5 477 L 149 488.5 L 147.5 489 L 128.5 479 L 127.5 477 Z " /><path fill="rgb(255,141,0)" stroke="rgb(255,141,0)" stroke-width="1" opacity="0.5098039215686274" d="M 384.5 477 L 383.5 479 L 363.5 489 L 363.5 488 L 384.5 477 Z " /><path fill="rgb(255,141,0)" stroke="rgb(255,141,0)" stroke-width="1" opacity="0.5098039215686274" d="M 150.5 489 L 166 495.5 L 164.5 496 L 150.5 490 L 150.5 489 Z " /><path fill="rgb(255,141,0)" stroke="rgb(255,141,0)" stroke-width="1" opacity="0.5098039215686274" d="M 360.5 489 L 362 489.5 L 346.5 496 L 346.5 495 L 360.5 489 Z " /><path fill="rgb(255,141,0)" stroke="rgb(255,141,0)" stroke-width="1" opacity="0.5098039215686274" d="M 167.5 496 L 184 501.5 L 181.5 502 L 169.5 498 L 167.5 496 Z " /><path fill="rgb(255,141,0)" stroke="rgb(255,141,0)" stroke-width="1" opacity="0.5098039215686274" d="M 343.5 496 L 345 496.5 L 328.5 502 L 328.5 501 L 343.5 496 Z " /><path fill="rgb(255,141,0)" stroke="rgb(255,141,0)" stroke-width="1" opacity="0.5098039215686274" d="M 185.5 502 L 191 503.5 L 188.5 504 L 185.5 503 L 185.5 502 Z " /><path fill="rgb(255,141,0)" stroke="rgb(255,141,0)" stroke-width="1" opacity="0.5098039215686274" d="M 324.5 502 L 327 502.5 L 321.5 504 L 321.5 503 L 324.5 502 Z " /><path fill="rgb(255,141,0)" stroke="rgb(255,141,0)" stroke-width="1" opacity="0.5098039215686274" d="M 192.5 504 L 200 505.5 L 196.5 506 L 192.5 505 L 192.5 504 Z " /><path fill="rgb(255,141,0)" stroke="rgb(255,141,0)" stroke-width="1" opacity="0.5098039215686274" d="M 316.5 504 L 320 504.5 L 312.5 506 L 312.5 505 L 316.5 504 Z " /><path fill="rgb(255,141,0)" stroke="rgb(255,141,0)" stroke-width="1" opacity="0.5098039215686274" d="M 201.5 506 L 204 506.5 L 201.5 507 L 201.5 506 Z " /><path fill="rgb(255,141,0)" stroke="rgb(255,141,0)" stroke-width="1" opacity="0.5098039215686274" d="M 308.5 506 L 311 506.5 L 308.5 507 L 308.5 506 Z " /><path fill="rgb(255,141,0)" stroke="rgb(255,141,0)" stroke-width="1" opacity="0.5098039215686274" d="M 205.5 507 L 210 507.5 L 205.5 508 L 205.5 507 Z " /><path fill="rgb(255,141,0)" stroke="rgb(255,141,0)" stroke-width="1" opacity="0.5098039215686274" d="M 302.5 507 L 307 507.5 L 302.5 508 L 302.5 507 Z " /><path fill="rgb(255,141,0)" stroke="rgb(255,141,0)" stroke-width="1" opacity="0.5098039215686274" d="M 211.5 508 L 215 508.5 L 211.5 509 L 211.5 508 Z " /><path fill="rgb(255,141,0)" stroke="rgb(255,141,0)" stroke-width="1" opacity="0.5098039215686274" d="M 297.5 508 L 301 508.5 L 297.5 509 L 297.5 508 Z " /><path fill="rgb(255,141,0)" stroke="rgb(255,141,0)" stroke-width="1" opacity="0.5098039215686274" d="M 216.5 509 L 223 509.5 L 216.5 510 L 216.5 509 Z " /><path fill="rgb(255,141,0)" stroke="rgb(255,141,0)" stroke-width="1" opacity="0.5098039215686274" d="M 289.5 509 L 296 509.5 L 289.5 510 L 289.5 509 Z " /><path fill="rgb(255,141,0)" stroke="rgb(255,141,0)" stroke-width="1" opacity="0.5098039215686274" d="M 224.5 510 L 231 510.5 L 224.5 511 L 224.5 510 Z " /><path fill="rgb(255,141,0)" stroke="rgb(255,141,0)" stroke-width="1" opacity="0.5098039215686274" d="M 281.5 510 L 288 510.5 L 281.5 511 L 281.5 510 Z " /><path fill="rgb(255,141,0)" stroke="rgb(255,141,0)" stroke-width="1" opacity="0.5098039215686274" d="M 234.5 511 L 246 511.5 L 234.5 512 L 234.5 511 Z " /><path fill="rgb(255,141,0)" stroke="rgb(255,141,0)" stroke-width="1" opacity="0.5098039215686274" d="M 266.5 511 L 278 511.5 L 266.5 512 L 266.5 511 Z " /><path fill="rgb(255,136,0)" stroke="rgb(255,136,0)" stroke-width="1" opacity="1" d="M 246.5 0 L 280.5 1 L 281.5 2 L 288.5 2 L 289.5 3 L 307.5 5 L 327.5 10 L 362.5 23 Q 413.3 46.7 448 86.5 Q 478.3 120.2 496 166.5 L 504 191.5 L 509 215.5 L 509 222.5 L 511 231.5 L 511 245.5 L 512 246.5 L 512 265.5 L 511 266.5 L 511 280.5 L 510 281.5 L 509 296.5 L 504 320.5 L 489 362.5 Q 465.3 413.3 425.5 448 Q 391.8 478.3 345.5 496 L 320.5 504 L 296.5 509 L 289.5 509 L 280.5 511 L 266.5 511 L 265.5 512 L 246.5 512 L 245.5 511 L 231.5 511 L 230.5 510 L 215.5 509 L 191.5 504 L 149.5 489 Q 98.7 465.3 64 425.5 Q 33.7 391.8 16 345.5 L 8 320.5 L 3 296.5 L 3 289.5 L 1 280.5 L 1 266.5 L 0 265.5 L 0 246.5 L 1 245.5 L 1 231.5 L 2 230.5 L 3 215.5 L 8 191.5 L 23 149.5 Q 46.7 98.7 86.5 64 Q 116.6 37.1 156.5 20 L 184.5 10 L 204.5 5 L 222.5 3 L 223.5 2 L 230.5 2 L 231.5 1 L 245.5 1 L 246.5 0 Z M 173 175 L 173 297 L 172 302 L 167 311 Q 161 317 152 319 Q 135 320 128 313 Q 121 307 119 297 L 119 281 L 98 281 L 98 296 L 100 307 L 108 322 Q 118 333 137 337 L 156 337 L 161 336 L 179 327 Q 187 320 191 310 L 194 296 L 194 176 L 194 175 L 173 175 Z M 232 175 L 232 335 L 233 335 L 253 335 L 253 176 L 253 175 L 232 175 Z M 291 175 L 291 335 L 292 335 L 312 335 L 312 283 L 320 274 L 336 259 L 389 335 L 414 335 L 350 246 L 350 244 L 357 236 L 413 176 L 386 175 L 386 177 L 327 240 L 314 257 L 312 258 L 312 176 L 312 175 L 291 175 Z " /><path fill="rgb(0,0,0)" stroke="rgb(0,0,0)" stroke-width="1" opacity="0" d="M 0 0 L 234 0.5 L 216.5 2 L 181.5 10 Q 155.5 18 133.5 30 Q 92.6 52.6 63 86.5 Q 36.1 116.6 19 156.5 L 6 196.5 L 2 216.5 L 0.5 234 L 0 0 Z " /><path fill="rgb(0,0,0)" stroke="rgb(0,0,0)" stroke-width="1" opacity="0" d="M 278.5 0 L 512 0 L 512 233.5 L 511 233.5 L 510 216.5 L 502 181.5 Q 494 155.5 482 133.5 Q 459.4 92.6 425.5 63 Q 395.4 36.1 355.5 19 L 323.5 8 L 295.5 2 L 278.5 1 L 278.5 0 Z " /><path fill="rgb(0,0,0)" stroke="rgb(0,0,0)" stroke-width="1" opacity="0" d="M 0.5 278 L 2 295.5 L 10 330.5 Q 18 356.5 30 378.5 Q 52.6 419.4 86.5 449 Q 116.6 475.9 156.5 493 L 196.5 506 L 216.5 510 L 234 511.5 L 0 512 L 0.5 278 Z " /><path fill="rgb(0,0,0)" stroke="rgb(0,0,0)" stroke-width="1" opacity="0" d="M 511.5 278 L 512 512 L 278 511.5 L 295.5 510 L 330.5 502 Q 356.5 494 378.5 482 Q 419.4 459.4 449 425.5 Q 475.9 395.4 493 355.5 L 506 315.5 L 510 295.5 L 511.5 278 Z " /><path fill="rgb(255,226,193)" stroke="rgb(255,226,193)" stroke-width="1" opacity="1" d="M 173.5 175 L 174 293.5 L 173 293.5 L 173.5 175 Z " /><path fill="rgb(255,226,193)" stroke="rgb(255,226,193)" stroke-width="1" opacity="1" d="M 193.5 175 L 194 295.5 L 193 295.5 L 193.5 175 Z " /><path fill="rgb(255,226,193)" stroke="rgb(255,226,193)" stroke-width="1" opacity="1" d="M 232.5 175 L 233 334.5 L 232 334.5 L 232.5 175 Z " /><path fill="rgb(255,226,193)" stroke="rgb(255,226,193)" stroke-width="1" opacity="1" d="M 252.5 175 L 253 334.5 L 252 334.5 L 252.5 175 Z " /><path fill="rgb(255,226,193)" stroke="rgb(255,226,193)" stroke-width="1" opacity="1" d="M 291.5 175 L 292 334.5 L 291 334.5 L 291.5 175 Z " /><path fill="rgb(255,226,193)" stroke="rgb(255,226,193)" stroke-width="1" opacity="1" d="M 411.5 177 L 403.5 186 L 411.5 177 Z " /><path fill="rgb(255,226,193)" stroke="rgb(255,226,193)" stroke-width="1" opacity="1" d="M 380.5 182 L 373.5 190 L 380.5 182 Z " /><path fill="rgb(255,226,193)" stroke="rgb(255,226,193)" stroke-width="1" opacity="1" d="M 397.5 192 L 389.5 201 L 397.5 192 Z " /><path fill="rgb(255,226,193)" stroke="rgb(255,226,193)" stroke-width="1" opacity="1" d="M 368.5 195 L 360.5 204 L 368.5 195 Z " /><path fill="rgb(255,226,193)" stroke="rgb(255,226,193)" stroke-width="1" opacity="1" d="M 384.5 206 L 375.5 216 L 384.5 206 Z " /><path fill="rgb(255,226,193)" stroke="rgb(255,226,193)" stroke-width="1" opacity="1" d="M 355.5 209 L 348.5 217 L 355.5 209 Z " /><path fill="rgb(255,226,193)" stroke="rgb(255,226,193)" stroke-width="1" opacity="1" d="M 370.5 221 L 362.5 230 L 370.5 221 Z " /><path fill="rgb(255,226,193)" stroke="rgb(255,226,193)" stroke-width="1" opacity="1" d="M 343.5 222 L 336.5 230 L 343.5 222 Z " /><path fill="rgb(255,226,193)" stroke="rgb(255,226,193)" stroke-width="1" opacity="1" d="M 332.5 234 L 327.5 240 L 332.5 234 Z " /><path fill="rgb(255,226,193)" stroke="rgb(255,226,193)" stroke-width="1" opacity="1" d="M 311.5 235 L 312 257.5 L 313 258.5 L 311 259 L 311.5 235 Z " /><path fill="rgb(255,226,193)" stroke="rgb(255,226,193)" stroke-width="1" opacity="1" d="M 356.5 236 L 350 243.5 L 349.5 245 L 349 243.5 L 356.5 236 Z " /><path fill="rgb(255,226,193)" stroke="rgb(255,226,193)" stroke-width="1" opacity="1" d="M 325.5 242 L 322.5 246 L 325.5 242 Z " /><path fill="rgb(255,226,193)" stroke="rgb(255,226,193)" stroke-width="1" opacity="1" d="M 350.5 246 L 351.5 248 L 350.5 246 Z " /><path fill="rgb(255,226,193)" stroke="rgb(255,226,193)" stroke-width="1" opacity="1" d="M 319.5 249 L 317.5 252 L 319.5 249 Z " /><path fill="rgb(255,226,193)" stroke="rgb(255,226,193)" stroke-width="1" opacity="1" d="M 352.5 249 L 353.5 251 L 352.5 249 Z " /><path fill="rgb(255,226,193)" stroke="rgb(255,226,193)" stroke-width="1" opacity="1" d="M 355.5 253 L 356.5 255 L 355.5 253 Z " /><path fill="rgb(255,226,193)" stroke="rgb(255,226,193)" stroke-width="1" opacity="1" d="M 315.5 254 L 314.5 256 L 315.5 254 Z " /><path fill="rgb(255,226,193)" stroke="rgb(255,226,193)" stroke-width="1" opacity="1" d="M 357.5 256 L 358.5 258 L 357.5 256 Z " /><path fill="rgb(255,226,193)" stroke="rgb(255,226,193)" stroke-width="1" opacity="1" d="M 334.5 258 L 336 258.5 L 326.5 267 L 334.5 258 Z " /><path fill="rgb(255,226,193)" stroke="rgb(255,226,193)" stroke-width="1" opacity="1" d="M 360.5 260 L 361.5 262 L 360.5 260 Z " /><path fill="rgb(255,226,193)" stroke="rgb(255,226,193)" stroke-width="1" opacity="1" d="M 337.5 261 L 338.5 263 L 337.5 261 Z " /><path fill="rgb(255,226,193)" stroke="rgb(255,226,193)" stroke-width="1" opacity="1" d="M 362.5 263 L 363.5 265 L 362.5 263 Z " /><path fill="rgb(255,226,193)" stroke="rgb(255,226,193)" stroke-width="1" opacity="1" d="M 339.5 264 L 340.5 266 L 339.5 264 Z " /><path fill="rgb(255,226,193)" stroke="rgb(255,226,193)" stroke-width="1" opacity="1" d="M 365.5 267 L 366.5 269 L 365.5 267 Z " /><path fill="rgb(255,226,193)" stroke="rgb(255,226,193)" stroke-width="1" opacity="1" d="M 342.5 268 L 343.5 270 L 342.5 268 Z " /><path fill="rgb(255,226,193)" stroke="rgb(255,226,193)" stroke-width="1" opacity="1" d="M 367.5 270 L 368.5 272 L 367.5 270 Z " /><path fill="rgb(255,226,193)" stroke="rgb(255,226,193)" stroke-width="1" opacity="1" d="M 344.5 271 L 345.5 273 L 344.5 271 Z " /><path fill="rgb(255,226,193)" stroke="rgb(255,226,193)" stroke-width="1" opacity="1" d="M 319.5 274 L 312.5 282 L 319.5 274 Z " /><path fill="rgb(255,226,193)" stroke="rgb(255,226,193)" stroke-width="1" opacity="1" d="M 370.5 274 L 371.5 276 L 370.5 274 Z " /><path fill="rgb(255,226,193)" stroke="rgb(255,226,193)" stroke-width="1" opacity="1" d="M 347.5 275 L 348.5 277 L 347.5 275 Z " /><path fill="rgb(255,226,193)" stroke="rgb(255,226,193)" stroke-width="1" opacity="1" d="M 372.5 277 L 373.5 279 L 372.5 277 Z " /><path fill="rgb(255,226,193)" stroke="rgb(255,226,193)" stroke-width="1" opacity="1" d="M 349.5 278 L 350.5 280 L 349.5 278 Z " /><path fill="rgb(255,226,193)" stroke="rgb(255,226,193)" stroke-width="1" opacity="1" d="M 98.5 281 L 99 295.5 L 98 295.5 L 98.5 281 Z " /><path fill="rgb(255,226,193)" stroke="rgb(255,226,193)" stroke-width="1" opacity="1" d="M 118.5 281 L 119 293.5 L 118 293.5 L 118.5 281 Z " /><path fill="rgb(255,226,193)" stroke="rgb(255,226,193)" stroke-width="1" opacity="1" d="M 375.5 281 L 376.5 283 L 375.5 281 Z " /><path fill="rgb(255,226,193)" stroke="rgb(255,226,193)" stroke-width="1" opacity="1" d="M 377.5 284 L 378.5 286 L 377.5 284 Z " /><path fill="rgb(255,226,193)" stroke="rgb(255,226,193)" stroke-width="1" opacity="1" d="M 354.5 285 L 355.5 287 L 354.5 285 Z " /><path fill="rgb(255,226,193)" stroke="rgb(255,226,193)" stroke-width="1" opacity="1" d="M 356.5 288 L 357.5 290 L 356.5 288 Z " /><path fill="rgb(255,226,193)" stroke="rgb(255,226,193)" stroke-width="1" opacity="1" d="M 380.5 288 L 381.5 290 L 380.5 288 Z " /><path fill="rgb(255,226,193)" stroke="rgb(255,226,193)" stroke-width="1" opacity="1" d="M 382.5 291 L 383.5 293 L 382.5 291 Z " /><path fill="rgb(255,226,193)" stroke="rgb(255,226,193)" stroke-width="1" opacity="1" d="M 359.5 292 L 360.5 294 L 359.5 292 Z " /><path fill="rgb(255,226,193)" stroke="rgb(255,226,193)" stroke-width="1" opacity="1" d="M 361.5 295 L 362.5 297 L 361.5 295 Z " /><path fill="rgb(255,226,193)" stroke="rgb(255,226,193)" stroke-width="1" opacity="1" d="M 385.5 295 L 386.5 297 L 385.5 295 Z " /><path fill="rgb(255,226,193)" stroke="rgb(255,226,193)" stroke-width="1" opacity="1" d="M 119.5 297 L 120 299.5 L 119 299.5 L 119.5 297 Z " /><path fill="rgb(255,226,193)" stroke="rgb(255,226,193)" stroke-width="1" opacity="1" d="M 172.5 297 L 173 299.5 L 172 299.5 L 172.5 297 Z " /><path fill="rgb(255,226,193)" stroke="rgb(255,226,193)" stroke-width="1" opacity="1" d="M 387.5 298 L 388.5 300 L 387.5 298 Z " /><path fill="rgb(255,226,193)" stroke="rgb(255,226,193)" stroke-width="1" opacity="1" d="M 364.5 299 L 365.5 301 L 364.5 299 Z " /><path fill="rgb(255,226,193)" stroke="rgb(255,226,193)" stroke-width="1" opacity="1" d="M 99.5 300 L 100 302.5 L 99 302.5 L 99.5 300 Z " /><path fill="rgb(255,226,193)" stroke="rgb(255,226,193)" stroke-width="1" opacity="1" d="M 192.5 300 L 193 302.5 L 192 302.5 L 192.5 300 Z " /><path fill="rgb(255,226,193)" stroke="rgb(255,226,193)" stroke-width="1" opacity="1" d="M 366.5 302 L 367.5 304 L 366.5 302 Z " /><path fill="rgb(255,226,193)" stroke="rgb(255,226,193)" stroke-width="1" opacity="1" d="M 390.5 302 L 391.5 304 L 390.5 302 Z " /><path fill="rgb(255,226,193)" stroke="rgb(255,226,193)" stroke-width="1" opacity="1" d="M 392.5 305 L 393.5 307 L 392.5 305 Z " /><path fill="rgb(255,226,193)" stroke="rgb(255,226,193)" stroke-width="1" opacity="1" d="M 369.5 306 L 370.5 308 L 369.5 306 Z " /><path fill="rgb(255,226,193)" stroke="rgb(255,226,193)" stroke-width="1" opacity="1" d="M 123.5 308 L 124.5 310 L 123.5 308 Z " /><path fill="rgb(255,226,193)" stroke="rgb(255,226,193)" stroke-width="1" opacity="1" d="M 168.5 308 L 167.5 310 L 168.5 308 Z " /><path fill="rgb(255,226,193)" stroke="rgb(255,226,193)" stroke-width="1" opacity="1" d="M 371.5 309 L 372.5 311 L 371.5 309 Z " /><path fill="rgb(255,226,193)" stroke="rgb(255,226,193)" stroke-width="1" opacity="1" d="M 395.5 309 L 396.5 311 L 395.5 309 Z " /><path fill="rgb(255,226,193)" stroke="rgb(255,226,193)" stroke-width="1" opacity="1" d="M 397.5 312 L 398.5 314 L 397.5 312 Z " /><path fill="rgb(255,226,193)" stroke="rgb(255,226,193)" stroke-width="1" opacity="1" d="M 128.5 313 L 129.5 315 L 128.5 313 Z " /><path fill="rgb(255,226,193)" stroke="rgb(255,226,193)" stroke-width="1" opacity="1" d="M 163.5 313 L 162.5 315 L 163.5 313 Z " /><path fill="rgb(255,226,193)" stroke="rgb(255,226,193)" stroke-width="1" opacity="1" d="M 374.5 313 L 375.5 315 L 374.5 313 Z " /><path fill="rgb(255,226,193)" stroke="rgb(255,226,193)" stroke-width="1" opacity="1" d="M 131.5 315 L 134 316.5 L 132.5 317 L 131.5 315 Z " /><path fill="rgb(255,226,193)" stroke="rgb(255,226,193)" stroke-width="1" opacity="1" d="M 160.5 315 L 159.5 317 L 158 316.5 L 160.5 315 Z " /><path fill="rgb(255,226,193)" stroke="rgb(255,226,193)" stroke-width="1" opacity="1" d="M 376.5 316 L 377.5 318 L 376.5 316 Z " /><path fill="rgb(255,226,193)" stroke="rgb(255,226,193)" stroke-width="1" opacity="1" d="M 400.5 316 L 401.5 318 L 400.5 316 Z " /><path fill="rgb(255,226,193)" stroke="rgb(255,226,193)" stroke-width="1" opacity="1" d="M 105.5 317 L 106.5 319 L 105.5 317 Z " /><path fill="rgb(255,226,193)" stroke="rgb(255,226,193)" stroke-width="1" opacity="1" d="M 186.5 317 L 185.5 319 L 186.5 317 Z " /><path fill="rgb(255,226,193)" stroke="rgb(255,226,193)" stroke-width="1" opacity="1" d="M 137.5 318 L 140 318.5 L 137.5 319 L 137.5 318 Z " /><path fill="rgb(255,226,193)" stroke="rgb(255,226,193)" stroke-width="1" opacity="1" d="M 152.5 318 L 155 318.5 L 152.5 319 L 152.5 318 Z " /><path fill="rgb(255,226,193)" stroke="rgb(255,226,193)" stroke-width="1" opacity="1" d="M 145.5 319 L 148 319.5 L 145.5 320 L 145.5 319 Z " /><path fill="rgb(255,226,193)" stroke="rgb(255,226,193)" stroke-width="1" opacity="1" d="M 402.5 319 L 403.5 321 L 402.5 319 Z " /><path fill="rgb(255,226,193)" stroke="rgb(255,226,193)" stroke-width="1" opacity="1" d="M 379.5 320 L 380.5 322 L 379.5 320 Z " /><path fill="rgb(255,226,193)" stroke="rgb(255,226,193)" stroke-width="1" opacity="1" d="M 108.5 321 L 113.5 327 L 108.5 321 Z " /><path fill="rgb(255,226,193)" stroke="rgb(255,226,193)" stroke-width="1" opacity="1" d="M 183.5 321 L 178.5 327 L 183.5 321 Z " /><path fill="rgb(255,226,193)" stroke="rgb(255,226,193)" stroke-width="1" opacity="1" d="M 381.5 323 L 382.5 325 L 381.5 323 Z " /><path fill="rgb(255,226,193)" stroke="rgb(255,226,193)" stroke-width="1" opacity="1" d="M 407.5 326 L 408.5 328 L 407.5 326 Z " /><path fill="rgb(255,226,193)" stroke="rgb(255,226,193)" stroke-width="1" opacity="1" d="M 384.5 327 L 385.5 329 L 384.5 327 Z " /><path fill="rgb(255,226,193)" stroke="rgb(255,226,193)" stroke-width="1" opacity="1" d="M 175.5 328 L 174.5 330 L 175.5 328 Z " /><path fill="rgb(255,226,193)" stroke="rgb(255,226,193)" stroke-width="1" opacity="1" d="M 386.5 330 L 387.5 332 L 386.5 330 Z " /><path fill="rgb(255,226,193)" stroke="rgb(255,226,193)" stroke-width="1" opacity="1" d="M 412.5 333 L 413.5 335 L 412.5 333 Z " /><path fill="rgb(255,226,193)" stroke="rgb(255,226,193)" stroke-width="1" opacity="1" d="M 136.5 336 L 140 336.5 L 136.5 337 L 136.5 336 Z " /><path fill="rgb(255,226,193)" stroke="rgb(255,226,193)" stroke-width="1" opacity="1" d="M 152.5 336 L 156 336.5 L 152.5 337 L 152.5 336 Z " /><path fill="rgb(255,254,254)" stroke="rgb(255,254,254)" stroke-width="1" opacity="1" d="M 174 175 L 192.5 175 L 193 175.5 L 193 299.5 Q 189.6 318.6 176.5 328 L 162.5 335 L 151.5 337 L 140.5 337 L 129.5 335 L 118.5 330 L 107 319.5 Q 96.5 306.3 99 281 L 118 281 L 118 293.5 Q 120.2 294.7 119 299.5 L 123 308.5 L 129.5 315 L 137.5 319 L 147.5 320 L 159.5 317 L 169 308.5 L 172 302.5 L 174 293.5 L 174 175 Z " /><path fill="rgb(255,254,254)" stroke="rgb(255,254,254)" stroke-width="1" opacity="1" d="M 233 175 L 251.5 175 L 252 175.5 L 252 335 L 233.5 335 L 233 334.5 L 233 175 Z " /><path fill="rgb(255,254,254)" stroke="rgb(255,254,254)" stroke-width="1" opacity="1" d="M 292 175 L 311.5 175 L 312 175.5 L 312 234.5 L 311 235.5 L 311 259 Q 313.7 260.1 313 257.5 L 333 233.5 L 387.5 175 L 413 175.5 L 349 244.5 L 413 334.5 L 390.5 335 L 336 258 L 334.5 258 L 326 266.5 L 312 281.5 L 312 335 L 292.5 335 L 292 334.5 L 292 175 Z " /></svg>